<svg width="48" height="48" viewBox="0 0 48 48" fill="none" xmlns="http://www.w3.org/2000/svg">
<path d="M24.9047 26.925L24.9187 26.8594C25.1906 25.7391 25.5328 24.3422 25.2656 23.0766C25.0875 22.0781 24.3516 21.6891 23.7234 21.6609C22.9828 21.6281 22.3219 22.05 22.1578 22.6641C21.8484 23.7891 22.125 25.3266 22.6312 27.2859C21.9937 28.8047 20.9766 31.0125 20.2313 32.325C18.8438 33.0422 16.9828 34.1484 16.7062 35.5453C16.65 35.8031 16.7156 36.1312 16.8703 36.4266C17.0437 36.7547 17.3203 37.0078 17.6437 37.1297C17.7844 37.1812 17.9531 37.2234 18.15 37.2234C18.975 37.2234 20.3109 36.5578 22.0922 33.5016C22.3641 33.4125 22.6453 33.3187 22.9172 33.225C24.1922 32.7937 25.5141 32.3438 26.7094 32.1422C28.0312 32.85 29.5359 33.3047 30.5578 33.3047C31.5703 33.3047 31.9688 32.7047 32.1188 32.3438C32.3813 31.7109 32.2547 30.9141 31.8281 30.4875C31.2094 29.8781 29.7047 29.7188 27.3609 30.0094C26.2078 29.3063 25.4531 28.35 24.9047 26.925ZM19.7625 34.0453C19.1109 34.9922 18.6187 35.4656 18.3516 35.6719C18.6656 35.0953 19.2797 34.4859 19.7625 34.0453ZM23.8688 23.0062C24.1125 23.4234 24.0797 24.6844 23.8922 25.3219C23.6625 24.3891 23.6297 23.0672 23.7656 22.9125C23.8031 22.9172 23.8359 22.9453 23.8688 23.0062ZM23.7938 28.6547C24.2953 29.5219 24.9281 30.2672 25.6266 30.8203C24.6141 31.05 23.6906 31.4297 22.8656 31.7672C22.6687 31.8469 22.4766 31.9266 22.2891 32.0016C22.9125 30.8719 23.4328 29.5922 23.7938 28.6547V28.6547ZM31.0875 31.725C31.0922 31.7344 31.0969 31.7484 31.0687 31.7672H31.0594L31.05 31.7812C31.0125 31.8047 30.6281 32.0297 28.9734 31.3781C30.8766 31.2891 31.0828 31.7203 31.0875 31.725V31.725ZM40.0594 13.5281L29.9719 3.44063C29.6906 3.15938 29.3109 3 28.9125 3H9C8.17031 3 7.5 3.67031 7.5 4.5V43.5C7.5 44.3297 8.17031 45 9 45H39C39.8297 45 40.5 44.3297 40.5 43.5V14.5922C40.5 14.1937 40.3406 13.8094 40.0594 13.5281V13.5281ZM37.0406 15.2812H28.2188V6.45938L37.0406 15.2812ZM37.125 41.625H10.875V6.375H25.0312V16.5C25.0312 17.0221 25.2387 17.5229 25.6079 17.8921C25.9771 18.2613 26.4779 18.4688 27 18.4688H37.125V41.625Z" fill="#3068BD"/>
</svg>
