<svg width="25" height="31" viewBox="0 0 25 31" fill="none" xmlns="http://www.w3.org/2000/svg">
<path d="M12.5 0C9.31856 0.00375324 6.26849 1.26924 4.01887 3.51886C1.76925 5.76848 0.503766 8.81854 0.500013 12C0.496202 14.5999 1.34545 17.1292 2.91746 19.2C2.91746 19.2 3.24474 19.6309 3.29819 19.6931L12.5 30.5454L21.7062 19.6876C21.7542 19.6298 22.0825 19.2 22.0825 19.2L22.0836 19.1967C23.6549 17.1268 24.5037 14.5987 24.5 12C24.4962 8.81854 23.2307 5.76848 20.9811 3.51886C18.7315 1.26924 15.6814 0.00375324 12.5 0V0ZM12.5 16.3636C11.637 16.3636 10.7933 16.1077 10.0757 15.6282C9.3581 15.1487 8.7988 14.4672 8.46853 13.6699C8.13826 12.8725 8.05184 11.9951 8.22021 11.1487C8.38859 10.3022 8.80418 9.5247 9.41445 8.91443C10.0247 8.30417 10.8022 7.88857 11.6487 7.7202C12.4952 7.55183 13.3725 7.63824 14.1699 7.96852C14.9672 8.29879 15.6487 8.85809 16.1282 9.57568C16.6077 10.2933 16.8636 11.1369 16.8636 12C16.8622 13.1569 16.402 14.2659 15.584 15.0839C14.7659 15.902 13.6569 16.3622 12.5 16.3636V16.3636Z" fill="#0E6EF5"/>
</svg>
