<svg width="24" height="24" viewBox="0 0 24 24" fill="none" xmlns="http://www.w3.org/2000/svg">
<path d="M22.8812 3.79218L19.7793 0.693194C19.5605 0.473421 19.3004 0.299046 19.014 0.180086C18.7276 0.0611262 18.4205 -7.43278e-05 18.1104 6.77452e-08C17.4784 6.77452e-08 16.8842 0.247569 16.4386 0.693194L13.1008 4.03101C12.881 4.24982 12.7066 4.5099 12.5877 4.7963C12.4687 5.0827 12.4075 5.38979 12.4076 5.69991C12.4076 6.33194 12.6552 6.92611 13.1008 7.37173L15.5415 9.81247C14.9702 11.0718 14.1759 12.2174 13.1969 13.194C12.2204 14.1753 11.0749 14.9725 9.81539 15.5473L7.37465 13.1066C7.15584 12.8868 6.89576 12.7125 6.60936 12.5935C6.32295 12.4745 6.01587 12.4133 5.70574 12.4134C5.07371 12.4134 4.47955 12.661 4.03392 13.1066L0.693195 16.4415C0.473152 16.6607 0.298628 16.9213 0.179662 17.2082C0.0606969 17.4951 -0.000360924 17.8027 1.60494e-06 18.1133C1.60494e-06 18.7454 0.247571 19.3395 0.693195 19.7851L3.78927 22.8812C4.49993 23.5948 5.48147 23.9996 6.48922 23.9996C6.70184 23.9996 6.90572 23.9822 7.10669 23.9472C11.0328 23.3006 14.927 21.2123 18.0696 18.0725C21.2094 14.9357 23.2948 11.0445 23.9501 7.10669C24.1482 5.90379 23.7492 4.66595 22.8812 3.79218V3.79218Z" fill="#0E6EF5"/>
</svg>
